<svg width="84" height="90" viewBox="0 0 84 90" fill="none" xmlns="http://www.w3.org/2000/svg">
<rect width="83.0769" height="90" fill="#101010"/>
<path d="M40.5 26.5L25.5 20.5V69.5H28V36.5L36.5 28L40.5 29.5V26.5Z" fill="#E1D4D5" stroke="#E1D4D5"/>
<path d="M52 37L37 31V70H39.5V47L48 38.5L52 40V37Z" fill="#E1D4D5" stroke="#E1D4D5"/>
<path d="M63 47L48 41V71.5H63V50V47Z" fill="#E1D4D5" stroke="#E1D4D5"/>
<path d="M66.3974 44.9514L47.7387 37.9961L39.2678 44.9514V69.6812H15V71.9997H47.7387V41.0873L62.9633 46.6902V71.9997H68V69.6812H66.3974V44.9514Z" fill="#2C7365"/>
<path d="M36.5204 28.2402L28.1641 36.5479V69.7787H36.5204V31.1383L51.5161 37.0309V39.4037L54.4924 40.6052V35.3887L36.5204 28.2402Z" fill="#2C7365"/>
<path d="M25.3017 18L16.9453 26.1145V69.8748H25.3017V20.5116L40.2974 26.5975V29.7491L43.0447 30.8479V25.2451L25.3017 18Z" fill="#2C7365"/>
<path d="M51.0586 50.0116V45.918L60.4452 49.3452V52.4868L51.0586 50.0116Z" fill="#2C7365"/>
<path d="M51.0586 57.993V54.2256L60.4452 55.7422V58.6692L51.0586 57.993Z" fill="#2C7365"/>
<path d="M51.0586 65.045V61.5674L60.4452 62.2656V65.045H51.0586Z" fill="#2C7365"/>
<path d="M51.0586 72.0001V68.5225H60.4452V72.0001H51.0586Z" fill="#2C7365"/>
</svg>
